<svg xml:space="preserve" width="500" height="500" xmlns="http://www.w3.org/2000/svg">
  <path style="fill:none;stroke:#fff;stroke-width:20;stroke-dasharray:none;stroke-opacity:1;stroke-linejoin:round" d="M463.305 79.838c-1.806-2.924-4.773-4.822-8.144-5.208-14.377-1.642-21.492-2.319-26.605-2.496-5.432 0-9.913 4.522-9.988 10.083-.147 10.73.343 18.77 3.214 23.147 1.105 1.68 1.551 4.052 1.086 5.767-.3 1.106-.956 1.87-2.068 2.406-.924.446-1.766.67-2.506.67-2.72 0-3.766-3.715-4.087-5.31-.755-3.736.137-6.578 1.078-9.588.664-2.116 1.35-4.307 1.335-6.673-.017-2.957-.284-15.82-.448-23.434-.125-5.83-4.325-10.637-9.987-11.428a11.403 11.403 0 0 0-8.42 2.198l-72.789 54.887c-6.994 5.275-9.124 15.124-4.949 22.909 14.502 27.025 3.741 41.884-8.697 52.854-4.016 3.542-10.225 5.338-18.452 5.338-9.594 0-20.149-2.414-27.856-4.177-3.207-.733-5.99-1.364-8.15-1.722a34.403 34.403 0 0 0-5.566-.434c-9.898 0-20.612 3.761-28.437 6.508-1.56.546-3.016 1.059-4.34 1.494-.604.2-1.788.438-3.995.438-6.968 0-18.192-2.396-28.097-4.507-5.694-1.215-11.074-2.361-15.692-3.1-8.068-1.285-14.661-1.332-21.037-1.378-6.286-.047-12.228-.09-19.558-1.26-11.8-1.88-32.88-5.588-41.396-7.095-3.153-.569-6.194.598-8.232 2.947a9.3 9.3 0 0 0-2.193 7.174l.52 4.41a5.773 5.773 0 0 1-1.079 4.076c-6.615 9.06-26.73 40.174-36.562 79.686 2.056-11.688-3.572 18.475-3.73 19.607-6.751 50.493 2.226 97.245 5.139 110.37a14.35 14.35 0 0 1 .203 5.006l-1.039 7.775c-1.117 8.36 4.628 16.095 12.811 17.237l22.822 3.188c.64.09 1.28.133 1.917.133 4.826 0 9.268-2.477 11.885-6.624l1.264-2.003c3.658-5.81 2.033-13.612-3.621-17.397-4.104-2.75-9.783-6.944-13.53-11.306-7.334-8.554-11.363-26.63-11.972-53.727a2.294 2.294 0 0 1 .634-1.643c.24-.253.757-.674 1.742-.674.012 0 .025 0 .037.003l4.167.411.912.043c4.753 0 8.805-3.634 9.425-8.449l5.248-40.632c.47-3.646-.274-7.4-2.1-10.564l-5.978-10.367a9.137 9.137 0 0 1-.938-6.878c2.572-9.956 7.695-28.523 13.102-40.996 4.702-10.835 12.875-17.294 17.334-20.182 1.534-.999 3.45-1.404 5.34-1.19l136.755 16.765a17.15 17.15 0 0 1 7.465 2.789l10.658 7.166c4.327 2.907 10.633 1.185 12.985-3.513l2.34-4.687c.35-.703 1.087-1.08 2.114-1.12 5.785.85 14.631 1.981 23.915 2.562 1.862.118 3.795.175 5.78.175 16.015 0 33.009-3.758 44.347-9.805 14.002-7.467 47.866-42.42 75.49-77.916 18.915-24.309 27.08-43.657 30.266-53.03a11.432 11.432 0 0 0-1.092-9.709z"/>
</svg>