<svg xml:space="preserve" width="500" height="500" xmlns="http://www.w3.org/2000/svg">
    <path style="fill:none;stroke:#fff;stroke-width:20;stroke-dasharray:none;stroke-opacity:1;stroke-linejoin:round" d="M464.987 371.045c0-.322 0-.636-.016-.954-.124-2.618-.555-5.652-2.12-8.187-2.052-3.32-5.214-5.7-7.73-8.044-15.851-14.775-32.06-29.154-47.881-43.877-3.019-2.808-5.962-5.677-8.645-8.711-2.29-2.59-4.367-5.475-6.475-8.378-2.35-3.236-4.71-6.378-6.636-9.682-3.238-5.554-6.08-11.426-9.062-17.264-2.144-4.196-3.922-8.796-6.46-13.116-1.452-2.472-3.234-4.88-5.366-6.9-2.17-2.053-4.732-3.523-7.07-4.911-2.186-1.298-4.525-2.583-7.07-3.482-3.242-1.146-6.67-2.084-10.123-2.591-2.5-.368-5.211-.503-7.873.016-22.219 4.326-44.475 9.155-66.489 14.355-2.106.498-4.072 1.55-5.655 2.893-2.073 1.758-3.464 3.967-4.837 5.787-1.458 1.933-2.636 3.935-3.904 5.723-1.152 1.85-2.121 3.562-4.258 4.292-5.224-1.413-10.686-4.056-16.116-6.406-2.097-.908-3.922-1.451-4.451-2.21-6.026-8.643-10.84-18.728-16.437-28.25-9.073-15.433-18.29-30.768-27.316-46.197-1.137-1.944-2.33-3.682-2.876-5.326-.423-1.275-.578-2.877-.434-4.26.139-1.327.626-2.825 1.286-3.943.61-1.037 1.595-2.096 2.603-2.734 2.817-1.787 6.47-2.949 9.897-4.976 1.986-1.175 4.319-2.488 6.042-4.579 1.793-2.176 2.866-4.815 3.696-7.217.731-2.119 1.542-4.644 1.269-7.281-.31-3.006-1.238-6.284-2.989-8.966-2.196-3.364-5.434-5.76-8.034-8.172-5.375-4.988-10.587-10.758-16.919-15.023-3.606-2.428-7.982-3.583-12.003-4.292-6.12-1.079-12.332-.93-18.269-1.192-6.515-.288-13.202-.893-19.924-.509-6.31.361-12.402 1.785-18.365 2.687-1.753.265-4.215.036-6.588 1.16-1.995.946-2.585 2.77-3.15 3.736-1.008 1.727-1.406 3.402-2.04 4.531-.579 1.03-1.203 1.978-1.832 2.544-.926.832-2.104 1.515-2.265 1.526-.103.007-.543-.085-1.173-.382s-1.404-.753-2.394-1.05c-.762-.227-2.058-.892-3.857-.747-1.646.134-3.34.342-4.852.986-2.102.896-3.854 2.766-5.56 4.309-1.487 1.345-3.16 2.698-4.177 4.499-4.603 8.137-9.218 16.577-12.662 25.229-1.226 3.082-1.425 6.593-1.301 9.888.58 15.434 2.254 30.894 3.39 46.325.666 9.047 2.059 18.092 2.025 27.089-.027 7.077-1.426 14.161-2.202 21.27-.267 2.447-.178 4.985-.9 7.202-.681 2.095-1.942 4.13-3.358 5.898-5.091 6.356-11.02 12.156-16.212 18.489-1.013 1.235-1.728 2.697-2.33 4.133-.599 1.428-1.061 2.96-1.285 4.499-.272 1.866-.269 3.805-.193 5.675.046 1.165.145 2.392.562 3.514.58 1.56 1.853 4.166 2.89 5.515.986 1.28 1.183 1.83 2.67 2.83 1.826 1.23 4.285 1.529 6.54.637 4.505-1.784 8.475-4.873 12.291-7.33 5.402-3.476 10.965-6.915 16.148-10.936 5.6-4.345 11.393-8.856 16.245-14.229 4.004-4.434 6.63-9.755 9.625-14.419 2.579-4.017 5.444-8.053 7.68-12.51 1.75-3.49 2.954-7.203 4-10.811.708-2.438 1.517-5.153 1.415-8.06-.255-7.226-1.603-14.346-2.378-21.318-.417-3.752-1.355-7.294-1.173-10.381.103-1.756 1.006-3.835 2.008-5.787.662-1.289 1.666-2.592 2.716-3.418 1.178-.927 2.835-1.683 4.467-2.194 1.58-.495 3.116-.843 4.097-.62 11.208 2.556 22.523 5.874 33.566 9.46 3.12 1.012 6.176 2.573 9.046 4.323 1.715 1.047 3.352 2.437 4.595 3.943 1.388 1.681 2.693 3.377 2.812 4.69 1.248 13.817-.227 28.574 1.173 42.89.36 3.69 2.269 7.026 4.21 9.714 2.075 2.874 5.023 4.793 7.423 6.693 2.194 1.736 4.519 4.076 7.745 5.294 25.757 9.72 52.154 18.028 78.09 27.2 15.234 5.388 30.528 10.557 45.455 16.486 8.37 3.324 16.704 6.826 24.391 11.223 12.19 6.974 23.724 15.306 35.638 23.13 14.16 9.3 28.018 19.328 42.548 28.219 2.892 1.769 6.205 2.843 9.4 3.418 3.372.606 6.973.658 10.363.174 3.616-.515 7.34-1.557 10.653-3.163 2.711-1.314 5.023-3.358 6.942-5.405 1.883-2.009 3.642-4.411 4.74-7.043.865-2.074 1.315-4.409 1.333-6.66z"/>
    <path style="fill:none;stroke:#000;stroke-width:5;stroke-dasharray:none;stroke-opacity:1;stroke-linejoin:round" d="M464.986 371.045c0-.322-.001-.636-.016-.954-.125-2.619-.556-5.652-2.121-8.187-2.051-3.32-5.213-5.7-7.729-8.044-15.852-14.775-32.06-29.154-47.882-43.877-3.018-2.808-5.961-5.678-8.644-8.712-2.29-2.589-4.368-5.474-6.476-8.377-2.349-3.236-4.71-6.378-6.636-9.682-3.237-5.554-6.079-11.426-9.062-17.265-2.143-4.195-3.922-8.795-6.46-13.115-1.451-2.472-3.234-4.88-5.366-6.9-2.17-2.054-4.731-3.523-7.07-4.912-2.186-1.297-4.525-2.582-7.07-3.481-3.241-1.146-6.669-2.084-10.122-2.591-2.501-.368-5.212-.503-7.874.016-22.218 4.326-44.475 9.155-66.488 14.355-2.106.497-4.072 1.55-5.656 2.893-2.072 1.758-3.464 3.967-4.836 5.787-1.459 1.933-2.636 3.935-3.905 5.723-1.152 1.85-2.12 3.562-4.258 4.292-5.223-1.413-10.685-4.056-16.116-6.406-2.096-.908-3.922-1.451-4.45-2.21-6.027-8.643-10.84-18.728-16.438-28.25-9.073-15.433-18.29-30.768-27.315-46.198-1.137-1.943-2.331-3.68-2.876-5.325-.423-1.275-.579-2.877-.434-4.26.138-1.327.626-2.825 1.285-3.943.611-1.037 1.596-2.096 2.603-2.734 2.817-1.787 6.47-2.949 9.898-4.976 1.985-1.175 4.318-2.488 6.041-4.579 1.794-2.176 2.866-4.815 3.696-7.217.732-2.119 1.542-4.644 1.27-7.281-.311-3.006-1.239-6.284-2.99-8.966-2.195-3.365-5.434-5.76-8.033-8.172-5.375-4.988-10.587-10.758-16.92-15.023-3.605-2.428-7.982-3.583-12.002-4.292-6.12-1.079-12.333-.93-18.27-1.192-6.514-.288-13.201-.893-19.923-.509-6.31.36-12.403 1.785-18.366 2.687-1.753.265-4.215.035-6.588 1.16-1.995.946-2.585 2.77-3.149 3.736-1.008 1.727-1.406 3.402-2.04 4.53-.58 1.031-1.203 1.979-1.832 2.544-.926.833-2.104 1.516-2.266 1.527-.102.007-.542-.085-1.173-.382-.63-.297-1.404-.753-2.394-1.05-.761-.227-2.058-.892-3.856-.747-1.646.134-3.34.342-4.853.986-2.102.896-3.854 2.766-5.56 4.308-1.487 1.346-3.159 2.7-4.177 4.5-4.603 8.137-9.218 16.577-12.661 25.229-1.227 3.081-1.425 6.593-1.302 9.888.58 15.434 2.255 30.893 3.39 46.325.667 9.046 2.06 18.092 2.025 27.089-.027 7.077-1.426 14.161-2.201 21.27-.267 2.447-.179 4.985-.9 7.202-.682 2.095-1.942 4.13-3.358 5.898-5.091 6.355-11.02 12.156-16.212 18.489-1.014 1.235-1.728 2.697-2.33 4.133-.6 1.428-1.062 2.96-1.286 4.499-.272 1.866-.268 3.805-.193 5.675.047 1.164.146 2.392.563 3.514.58 1.56 1.852 4.165 2.89 5.515.985 1.28 1.183 1.83 2.67 2.83 1.825 1.23 4.285 1.529 6.539.637 4.506-1.784 8.475-4.873 12.292-7.33 5.401-3.476 10.965-6.915 16.148-10.937 5.6-4.344 11.393-8.855 16.244-14.228 4.005-4.434 6.63-9.755 9.625-14.419 2.58-4.017 5.444-8.053 7.68-12.51 1.75-3.49 2.954-7.203 4.001-10.811.708-2.438 1.517-5.153 1.414-8.06-.254-7.226-1.603-14.346-2.378-21.318-.417-3.752-1.354-7.294-1.173-10.381.104-1.756 1.007-3.835 2.009-5.787.661-1.289 1.666-2.592 2.715-3.418 1.178-.927 2.836-1.683 4.467-2.194 1.58-.495 3.117-.843 4.097-.62 11.208 2.556 22.523 5.874 33.566 9.46 3.12 1.012 6.176 2.573 9.046 4.323 1.716 1.046 3.353 2.437 4.596 3.943 1.387 1.681 2.693 3.377 2.811 4.69 1.248 13.817-.227 28.574 1.173 42.89.361 3.69 2.27 7.025 4.21 9.714 2.075 2.874 5.023 4.793 7.424 6.693 2.193 1.736 4.518 4.076 7.744 5.294 25.757 9.72 52.155 18.028 78.09 27.2 15.234 5.387 30.529 10.557 45.456 16.485 8.37 3.325 16.704 6.827 24.39 11.224 12.19 6.974 23.724 15.306 35.639 23.13 14.16 9.3 28.018 19.328 42.547 28.219 2.892 1.769 6.205 2.843 9.4 3.417 3.372.607 6.973.659 10.364.175 3.615-.515 7.34-1.558 10.653-3.163 2.71-1.314 5.022-3.358 6.941-5.405 1.883-2.01 3.643-4.411 4.74-7.043.865-2.074 1.315-4.409 1.334-6.66z"/>
</svg>