<svg xml:space="preserve" width="500" height="500" xmlns="http://www.w3.org/2000/svg">
    <path style="fill:none;stroke:#fff;stroke-width:20;stroke-dasharray:none;stroke-opacity:1;stroke-linejoin:round" d="M463.388 41.525c-3.257-6.682-10.206-10.425-17.939-8.881l-6.745 1.364c-17.243 3.483-32.365 20.041-34.427 37.693-1.92 16.432-5.262 23.62-7.73 26.754l-46.926 59.64a11.351 11.351 0 0 1-7.306 4.229l-94.012 13.744a31.72 31.72 0 0 0-20.427 11.816l-101.73 129.137-27.638-21.67c-4.373-3.421-11.227-2.597-14.665 1.76l-46.666 59.315c-3.56 4.52-2.769 11.086 1.76 14.642l29.956 23.608-21.831 27.747a22.648 22.648 0 0 0-4.85 13.035l-.617 13.507c-.224 4.924 1.529 9.598 4.934 13.156 3.37 3.52 8.082 5.54 12.927 5.543h.002c1.092 0 2.2-.101 3.32-.31l15.204-2.838a22.808 22.808 0 0 0 13.758-8.321l186.324-236.65 60.338 47.306c4.368 3.435 11.24 2.603 14.668-1.757l51.006-64.832a10.33 10.33 0 0 0 2.157-7.684 10.364 10.364 0 0 0-3.918-6.958l-25.095-19.798 84.303-107.148c3.89-4.946 4.606-11.518 1.865-17.149z"/>
    <path style="fill:none;stroke:#000;stroke-width:5;stroke-dasharray:none;stroke-opacity:1;stroke-linejoin:round" d="M463.388 41.525c-3.257-6.682-10.206-10.425-17.939-8.881l-6.745 1.364c-17.243 3.483-32.365 20.041-34.427 37.693-1.92 16.432-5.262 23.62-7.73 26.754l-46.926 59.64a11.351 11.351 0 0 1-7.306 4.229l-94.012 13.744a31.72 31.72 0 0 0-20.427 11.816l-101.73 129.137-27.638-21.67c-4.373-3.421-11.227-2.597-14.665 1.76l-46.666 59.315c-3.56 4.52-2.769 11.086 1.76 14.642l29.956 23.608-21.831 27.747a22.648 22.648 0 0 0-4.85 13.035l-.617 13.507c-.224 4.924 1.529 9.598 4.934 13.156 3.37 3.52 8.082 5.54 12.927 5.543h.002c1.092 0 2.2-.101 3.32-.31l15.204-2.838a22.808 22.808 0 0 0 13.758-8.321l186.324-236.65 60.338 47.306c4.368 3.435 11.24 2.603 14.668-1.757l51.006-64.832a10.33 10.33 0 0 0 2.157-7.684 10.364 10.364 0 0 0-3.918-6.958l-25.095-19.798 84.303-107.148c3.89-4.946 4.606-11.518 1.865-17.149z"/>
</svg>